#tb 0: 1/44100
#media_type 0: audio
#codec_id 0: pcm_s16le
#sample_rate 0: 44100
#channel_layout_name 0: stereo
0,        -44,        -44,     4096,    16384, 0x07a26a6d
0,       4052,       4052,     4096,    16384, 0x416cd831
0,       8148,       8148,     4096,    16384, 0xb148efa7
0,      12244,      12244,     4096,    16384, 0xeb93ee9b
0,      16340,      16340,     4096,    16384, 0x415fe815
0,      20436,      20436,     4096,    16384, 0x4727f193
0,      24532,      24532,     4096,    16384, 0x0576cccf
0,      28628,      28628,     4096,    16384, 0x926fd61b
0,      32724,      32724,     4096,    16384, 0x9cfdd4a9
0,      36820,      36820,     4096,    16384, 0xb4f8d3fd
0,      40916,      40916,     4096,    16384, 0x952adb15
0,      45012,      45012,     4096,    16384, 0x52c8dcd5
0,      49108,      49108,     4096,    16384, 0xf8c0f20f
0,      53204,      53204,     4096,    16384, 0x86db80dd
0,      57300,      57300,     4096,    16384, 0xf35d027a
0,      61396,      61396,     4096,    16384, 0x213bd6f7
0,      65492,      65492,     4096,    16384, 0x5568f817
0,      69588,      69588,     4096,    16384, 0x0f6dc531
0,      73684,      73684,     4096,    16384, 0x07a91aac
0,      77780,      77780,     4096,    16384, 0xe7db1258
0,      81876,      81876,     4096,    16384, 0xf34f4438
0,      85972,      85972,     4096,    16384, 0x77b6e58d
0,      90068,      90068,     4096,    16384, 0x093d6f95
0,      94164,      94164,     4096,    16384, 0x8e1efb51
0,      98260,      98260,     4096,    16384, 0x7fc2d1b7
0,     102356,     102356,     4096,    16384, 0xeea0e70b
0,     106452,     106452,     4096,    16384, 0xb1e2a44b
0,     110548,     110548,     4096,    16384, 0xdbb7e2ef
0,     114644,     114644,     4096,    16384, 0x7bf6dd49
0,     118740,     118740,     4096,    16384, 0x2043efa5
0,     122836,     122836,     4096,    16384, 0x430ece95
0,     126932,     126932,     4096,    16384, 0xa317a7e9
0,     131028,     131028,     4096,    16384, 0x2006d2d1
0,     135124,     135124,     4096,    16384, 0x7f88eef1
0,     139220,     139220,     4096,    16384, 0x6036ea3d
0,     143316,     143316,     4096,    16384, 0x9ca8d305
0,     147412,     147412,     4096,    16384, 0xb4b4db86
0,     151508,     151508,     4096,    16384, 0xdff3d919
0,     155604,     155604,     4096,    16384, 0x16d3eedd
0,     159700,     159700,     4096,    16384, 0x88a6fede
0,     163796,     163796,     4096,    16384, 0x8de512b5
0,     167892,     167892,     4096,    16384, 0x0120cdbb
0,     171988,     171988,     4096,    16384, 0xc364ab8d
0,     176084,     176084,     4096,    16384, 0xfc26dd6a
0,     180180,     180180,     4096,    16384, 0x3cabdcb5
0,     184276,     184276,     4096,    16384, 0x56fa792d
0,     188372,     188372,     4096,    16384, 0x21330865
0,     192468,     192468,     4096,    16384, 0xcc98a836
0,     196564,     196564,     4096,    16384, 0x05eefb94
0,     200660,     200660,     4096,    16384, 0x3a36726d
0,     204756,     204756,     4096,    16384, 0x9755cfe1
0,     208852,     208852,     4096,    16384, 0x505bc990
0,     212948,     212948,     4096,    16384, 0xf03fee0b
0,     217044,     217044,     4096,    16384, 0x1f936e73
0,     221140,     221140,     4096,    16384, 0x7e1fe45d
0,     225236,     225236,     4096,    16384, 0xf7a3cab1
0,     229332,     229332,     4096,    16384, 0x9b19cd47
0,     233428,     233428,     4096,    16384, 0xba0b7e54
0,     237524,     237524,     4096,    16384, 0xdd53e385
0,     241620,     241620,     4096,    16384, 0x24b0c97c
0,     245716,     245716,     4096,    16384, 0x011eee0f
0,     249812,     249812,     4096,    16384, 0x95956e73
0,     253908,     253908,     4096,    16384, 0x1d39e458
0,     258004,     258004,     4096,    16384, 0x3aa8caaf
0,     262100,     262100,     2456,     9824, 0x19b8fe17
0,     262144,     262144,       44,      176, 0x8a535977
